<mxfile host="app.diagrams.net" agent="Mozilla/5.0 (Windows NT 10.0; Win64; x64) AppleWebKit/537.36 (KHTML, like Gecko) Chrome/137.0.0.0 Safari/537.36" version="27.1.4">
  <diagram name="Page-1" id="Sk4nvKvh8_uetu2Tvp62">
    <mxGraphModel dx="872" dy="489" grid="1" gridSize="10" guides="1" tooltips="1" connect="1" arrows="1" fold="1" page="1" pageScale="1" pageWidth="850" pageHeight="1100" background="light-dark(#FFFFFF,#FFFFFF)" math="0" shadow="0">
      <root>
        <mxCell id="0" />
        <mxCell id="1" parent="0" />
        <mxCell id="k0jRA1kzdCy6k_ZmYVvg-1" value="" style="rounded=0;whiteSpace=wrap;html=1;fillColor=none;strokeColor=light-dark(#000000,#000000);" vertex="1" parent="1">
          <mxGeometry x="130" y="50" width="340" height="1070" as="geometry" />
        </mxCell>
        <mxCell id="k0jRA1kzdCy6k_ZmYVvg-2" value="" style="ellipse;whiteSpace=wrap;html=1;rounded=0;strokeColor=light-dark(#000000,#000000);align=center;verticalAlign=middle;fontFamily=Helvetica;fontSize=12;fontColor=default;fillColor=none;" vertex="1" parent="1">
          <mxGeometry x="265" y="60" width="80" height="40" as="geometry" />
        </mxCell>
        <mxCell id="k0jRA1kzdCy6k_ZmYVvg-3" value="&lt;font style=&quot;&quot;&gt;login&lt;/font&gt;" style="text;html=1;align=center;verticalAlign=middle;whiteSpace=wrap;rounded=0;fontFamily=Helvetica;fontSize=12;fontColor=light-dark(#000000,#000000);strokeColor=none;" vertex="1" parent="1">
          <mxGeometry x="275" y="100" width="60" height="30" as="geometry" />
        </mxCell>
        <mxCell id="k0jRA1kzdCy6k_ZmYVvg-4" value="&lt;font style=&quot;&quot;&gt;log out&lt;/font&gt;" style="text;html=1;align=center;verticalAlign=middle;whiteSpace=wrap;rounded=0;fontFamily=Helvetica;fontSize=12;fontColor=light-dark(#000000,#000000);strokeColor=none;" vertex="1" parent="1">
          <mxGeometry x="275" y="180" width="60" height="30" as="geometry" />
        </mxCell>
        <mxCell id="k0jRA1kzdCy6k_ZmYVvg-5" value="&lt;font style=&quot;&quot;&gt;mengelola data murid&lt;/font&gt;" style="text;html=1;align=center;verticalAlign=middle;whiteSpace=wrap;rounded=0;fontFamily=Helvetica;fontSize=12;fontColor=light-dark(#000000,#000000);strokeColor=none;" vertex="1" parent="1">
          <mxGeometry x="225" y="590" width="160" height="30" as="geometry" />
        </mxCell>
        <mxCell id="k0jRA1kzdCy6k_ZmYVvg-6" value="&lt;font style=&quot;&quot;&gt;mengelola data mapel&lt;/font&gt;" style="text;html=1;align=center;verticalAlign=middle;whiteSpace=wrap;rounded=0;fontFamily=Helvetica;fontSize=12;fontColor=light-dark(#000000,#000000);strokeColor=none;" vertex="1" parent="1">
          <mxGeometry x="220" y="340" width="170" height="30" as="geometry" />
        </mxCell>
        <mxCell id="k0jRA1kzdCy6k_ZmYVvg-7" value="&lt;font style=&quot;&quot;&gt;melihat hasil input data&lt;/font&gt;" style="text;html=1;align=center;verticalAlign=middle;whiteSpace=wrap;rounded=0;fontFamily=Helvetica;fontSize=12;fontColor=light-dark(#000000,#000000);strokeColor=none;" vertex="1" parent="1">
          <mxGeometry x="225" y="830" width="160" height="30" as="geometry" />
        </mxCell>
        <mxCell id="k0jRA1kzdCy6k_ZmYVvg-8" value="&lt;font style=&quot;&quot;&gt;mengelola data guru&lt;/font&gt;" style="text;html=1;align=center;verticalAlign=middle;whiteSpace=wrap;rounded=0;fontFamily=Helvetica;fontSize=12;fontColor=light-dark(#000000,#000000);strokeColor=none;" vertex="1" parent="1">
          <mxGeometry x="225" y="420" width="160" height="30" as="geometry" />
        </mxCell>
        <mxCell id="k0jRA1kzdCy6k_ZmYVvg-9" value="&lt;font style=&quot;&quot;&gt;mengelola data kelas&lt;/font&gt;" style="text;html=1;align=center;verticalAlign=middle;whiteSpace=wrap;rounded=0;fontFamily=Helvetica;fontSize=12;fontColor=light-dark(#000000,#000000);strokeColor=none;" vertex="1" parent="1">
          <mxGeometry x="210" y="510" width="190" height="30" as="geometry" />
        </mxCell>
        <mxCell id="k0jRA1kzdCy6k_ZmYVvg-10" value="&lt;font style=&quot;&quot;&gt;melihat data absensi&lt;/font&gt;" style="text;html=1;align=center;verticalAlign=middle;whiteSpace=wrap;rounded=0;fontFamily=Helvetica;fontSize=12;fontColor=light-dark(#000000,#000000);strokeColor=none;" vertex="1" parent="1">
          <mxGeometry x="230" y="910" width="150" height="30" as="geometry" />
        </mxCell>
        <mxCell id="k0jRA1kzdCy6k_ZmYVvg-11" value="&lt;font style=&quot;&quot;&gt;mengelola data tahun ajaran&lt;/font&gt;" style="text;html=1;align=center;verticalAlign=middle;whiteSpace=wrap;rounded=0;fontFamily=Helvetica;fontSize=12;fontColor=light-dark(#000000,#000000);strokeColor=none;" vertex="1" parent="1">
          <mxGeometry x="205" y="260" width="200" height="30" as="geometry" />
        </mxCell>
        <mxCell id="k0jRA1kzdCy6k_ZmYVvg-12" value="&lt;font style=&quot;&quot;&gt;mengelola data ujian&lt;/font&gt;" style="text;html=1;align=center;verticalAlign=middle;whiteSpace=wrap;rounded=0;fontFamily=Helvetica;fontSize=12;fontColor=light-dark(#000000,#000000);strokeColor=none;" vertex="1" parent="1">
          <mxGeometry x="225" y="750" width="160" height="30" as="geometry" />
        </mxCell>
        <mxCell id="k0jRA1kzdCy6k_ZmYVvg-13" value="&lt;font style=&quot;&quot;&gt;mengelola data absensi&lt;/font&gt;" style="text;html=1;align=center;verticalAlign=middle;whiteSpace=wrap;rounded=0;fontFamily=Helvetica;fontSize=12;fontColor=light-dark(#000000,#000000);strokeColor=none;" vertex="1" parent="1">
          <mxGeometry x="225" y="670" width="160" height="30" as="geometry" />
        </mxCell>
        <mxCell id="k0jRA1kzdCy6k_ZmYVvg-14" value="&lt;font style=&quot;&quot;&gt;rekap data nilai dan kehadiran siswa dengan format PDF&lt;/font&gt;" style="text;html=1;align=center;verticalAlign=middle;whiteSpace=wrap;rounded=0;fontFamily=Helvetica;fontSize=12;fontColor=light-dark(#000000,#000000);strokeColor=none;" vertex="1" parent="1">
          <mxGeometry x="165" y="1080" width="280" height="30" as="geometry" />
        </mxCell>
        <mxCell id="k0jRA1kzdCy6k_ZmYVvg-15" value="&lt;font style=&quot;&quot;&gt;melihat data ujian&lt;/font&gt;" style="text;html=1;align=center;verticalAlign=middle;whiteSpace=wrap;rounded=0;fontFamily=Helvetica;fontSize=12;fontColor=light-dark(#000000,#000000);strokeColor=none;" vertex="1" parent="1">
          <mxGeometry x="225" y="990" width="160" height="30" as="geometry" />
        </mxCell>
        <mxCell id="k0jRA1kzdCy6k_ZmYVvg-16" value="" style="ellipse;whiteSpace=wrap;html=1;rounded=0;strokeColor=light-dark(#000000,#000000);align=center;verticalAlign=middle;fontFamily=Helvetica;fontSize=12;fontColor=default;fillColor=none;" vertex="1" parent="1">
          <mxGeometry x="265" y="140" width="80" height="40" as="geometry" />
        </mxCell>
        <mxCell id="k0jRA1kzdCy6k_ZmYVvg-17" value="" style="ellipse;whiteSpace=wrap;html=1;rounded=0;strokeColor=light-dark(#000000,#000000);align=center;verticalAlign=middle;fontFamily=Helvetica;fontSize=12;fontColor=default;fillColor=none;" vertex="1" parent="1">
          <mxGeometry x="265" y="220" width="80" height="40" as="geometry" />
        </mxCell>
        <mxCell id="k0jRA1kzdCy6k_ZmYVvg-18" value="" style="ellipse;whiteSpace=wrap;html=1;rounded=0;strokeColor=light-dark(#000000,#000000);align=center;verticalAlign=middle;fontFamily=Helvetica;fontSize=12;fontColor=default;fillColor=none;" vertex="1" parent="1">
          <mxGeometry x="265" y="300" width="80" height="40" as="geometry" />
        </mxCell>
        <mxCell id="k0jRA1kzdCy6k_ZmYVvg-19" value="" style="ellipse;whiteSpace=wrap;html=1;rounded=0;strokeColor=light-dark(#000000,#000000);align=center;verticalAlign=middle;fontFamily=Helvetica;fontSize=12;fontColor=default;fillColor=none;" vertex="1" parent="1">
          <mxGeometry x="265" y="460" width="80" height="40" as="geometry" />
        </mxCell>
        <mxCell id="k0jRA1kzdCy6k_ZmYVvg-20" value="" style="ellipse;whiteSpace=wrap;html=1;rounded=0;strokeColor=light-dark(#000000,#000000);align=center;verticalAlign=middle;fontFamily=Helvetica;fontSize=12;fontColor=default;fillColor=none;" vertex="1" parent="1">
          <mxGeometry x="265" y="550" width="80" height="40" as="geometry" />
        </mxCell>
        <mxCell id="k0jRA1kzdCy6k_ZmYVvg-21" value="" style="ellipse;whiteSpace=wrap;html=1;rounded=0;strokeColor=light-dark(#000000,#000000);align=center;verticalAlign=middle;fontFamily=Helvetica;fontSize=12;fontColor=default;fillColor=none;" vertex="1" parent="1">
          <mxGeometry x="265" y="630" width="80" height="40" as="geometry" />
        </mxCell>
        <mxCell id="k0jRA1kzdCy6k_ZmYVvg-22" value="" style="ellipse;whiteSpace=wrap;html=1;rounded=0;strokeColor=light-dark(#000000,#000000);align=center;verticalAlign=middle;fontFamily=Helvetica;fontSize=12;fontColor=default;fillColor=none;" vertex="1" parent="1">
          <mxGeometry x="265" y="790" width="80" height="40" as="geometry" />
        </mxCell>
        <mxCell id="k0jRA1kzdCy6k_ZmYVvg-23" value="" style="ellipse;whiteSpace=wrap;html=1;rounded=0;strokeColor=light-dark(#000000,#000000);align=center;verticalAlign=middle;fontFamily=Helvetica;fontSize=12;fontColor=default;fillColor=none;" vertex="1" parent="1">
          <mxGeometry x="265" y="870" width="80" height="40" as="geometry" />
        </mxCell>
        <mxCell id="k0jRA1kzdCy6k_ZmYVvg-24" value="" style="ellipse;whiteSpace=wrap;html=1;rounded=0;strokeColor=light-dark(#000000,#000000);align=center;verticalAlign=middle;fontFamily=Helvetica;fontSize=12;fontColor=default;fillColor=none;" vertex="1" parent="1">
          <mxGeometry x="265" y="950" width="80" height="40" as="geometry" />
        </mxCell>
        <mxCell id="k0jRA1kzdCy6k_ZmYVvg-25" value="" style="ellipse;whiteSpace=wrap;html=1;rounded=0;strokeColor=light-dark(#000000,#000000);align=center;verticalAlign=middle;fontFamily=Helvetica;fontSize=12;fontColor=default;fillColor=none;" vertex="1" parent="1">
          <mxGeometry x="265" y="1030" width="80" height="40" as="geometry" />
        </mxCell>
        <mxCell id="k0jRA1kzdCy6k_ZmYVvg-26" value="" style="ellipse;whiteSpace=wrap;html=1;rounded=0;strokeColor=light-dark(#000000,#000000);align=center;verticalAlign=middle;fontFamily=Helvetica;fontSize=12;fontColor=default;fillColor=none;" vertex="1" parent="1">
          <mxGeometry x="265" y="380" width="80" height="40" as="geometry" />
        </mxCell>
        <mxCell id="k0jRA1kzdCy6k_ZmYVvg-27" value="" style="ellipse;whiteSpace=wrap;html=1;rounded=0;strokeColor=light-dark(#000000,#000000);align=center;verticalAlign=middle;fontFamily=Helvetica;fontSize=12;fontColor=default;fillColor=none;" vertex="1" parent="1">
          <mxGeometry x="265" y="710" width="80" height="40" as="geometry" />
        </mxCell>
        <mxCell id="k0jRA1kzdCy6k_ZmYVvg-29" style="edgeStyle=orthogonalEdgeStyle;rounded=0;orthogonalLoop=1;jettySize=auto;html=1;exitX=0.5;exitY=0;exitDx=0;exitDy=0;exitPerimeter=0;entryX=1;entryY=0.5;entryDx=0;entryDy=0;fontFamily=Helvetica;fontSize=12;fontColor=light-dark(#000000,#000000);strokeColor=light-dark(#000000,#000000);" edge="1" parent="1" source="k0jRA1kzdCy6k_ZmYVvg-28" target="k0jRA1kzdCy6k_ZmYVvg-2">
          <mxGeometry relative="1" as="geometry" />
        </mxCell>
        <mxCell id="k0jRA1kzdCy6k_ZmYVvg-30" style="edgeStyle=orthogonalEdgeStyle;shape=connector;rounded=0;orthogonalLoop=1;jettySize=auto;html=1;exitX=0.5;exitY=0;exitDx=0;exitDy=0;exitPerimeter=0;entryX=1;entryY=0.5;entryDx=0;entryDy=0;strokeColor=light-dark(#000000,#000000);align=center;verticalAlign=middle;fontFamily=Helvetica;fontSize=12;fontColor=light-dark(#000000,#000000);labelBackgroundColor=default;endArrow=classic;" edge="1" parent="1" source="k0jRA1kzdCy6k_ZmYVvg-28" target="k0jRA1kzdCy6k_ZmYVvg-16">
          <mxGeometry relative="1" as="geometry" />
        </mxCell>
        <mxCell id="k0jRA1kzdCy6k_ZmYVvg-31" style="edgeStyle=orthogonalEdgeStyle;shape=connector;rounded=0;orthogonalLoop=1;jettySize=auto;html=1;exitX=0.5;exitY=0;exitDx=0;exitDy=0;exitPerimeter=0;entryX=1;entryY=0.5;entryDx=0;entryDy=0;strokeColor=light-dark(#000000,#000000);align=center;verticalAlign=middle;fontFamily=Helvetica;fontSize=12;fontColor=light-dark(#000000,#000000);labelBackgroundColor=default;endArrow=classic;" edge="1" parent="1" source="k0jRA1kzdCy6k_ZmYVvg-28" target="k0jRA1kzdCy6k_ZmYVvg-17">
          <mxGeometry relative="1" as="geometry" />
        </mxCell>
        <mxCell id="k0jRA1kzdCy6k_ZmYVvg-34" style="edgeStyle=orthogonalEdgeStyle;shape=connector;rounded=0;orthogonalLoop=1;jettySize=auto;html=1;exitX=0.5;exitY=0;exitDx=0;exitDy=0;exitPerimeter=0;entryX=1;entryY=0.5;entryDx=0;entryDy=0;strokeColor=light-dark(#000000,#000000);align=center;verticalAlign=middle;fontFamily=Helvetica;fontSize=12;fontColor=light-dark(#000000,#000000);labelBackgroundColor=default;endArrow=classic;" edge="1" parent="1" source="k0jRA1kzdCy6k_ZmYVvg-28" target="k0jRA1kzdCy6k_ZmYVvg-18">
          <mxGeometry relative="1" as="geometry" />
        </mxCell>
        <mxCell id="k0jRA1kzdCy6k_ZmYVvg-35" style="edgeStyle=orthogonalEdgeStyle;shape=connector;rounded=0;orthogonalLoop=1;jettySize=auto;html=1;exitX=0.5;exitY=0;exitDx=0;exitDy=0;exitPerimeter=0;entryX=1;entryY=0.5;entryDx=0;entryDy=0;strokeColor=light-dark(#000000,#000000);align=center;verticalAlign=middle;fontFamily=Helvetica;fontSize=12;fontColor=light-dark(#000000,#000000);labelBackgroundColor=default;endArrow=classic;" edge="1" parent="1" source="k0jRA1kzdCy6k_ZmYVvg-28" target="k0jRA1kzdCy6k_ZmYVvg-26">
          <mxGeometry relative="1" as="geometry" />
        </mxCell>
        <mxCell id="k0jRA1kzdCy6k_ZmYVvg-36" style="shape=connector;rounded=0;orthogonalLoop=1;jettySize=auto;html=1;exitX=0.5;exitY=0.5;exitDx=0;exitDy=0;exitPerimeter=0;entryX=1;entryY=0.5;entryDx=0;entryDy=0;strokeColor=light-dark(#000000,#000000);align=center;verticalAlign=middle;fontFamily=Helvetica;fontSize=12;fontColor=light-dark(#000000,#000000);labelBackgroundColor=default;endArrow=classic;" edge="1" parent="1" source="k0jRA1kzdCy6k_ZmYVvg-28" target="k0jRA1kzdCy6k_ZmYVvg-19">
          <mxGeometry relative="1" as="geometry" />
        </mxCell>
        <mxCell id="k0jRA1kzdCy6k_ZmYVvg-37" style="shape=connector;rounded=0;orthogonalLoop=1;jettySize=auto;html=1;exitX=0.5;exitY=0.5;exitDx=0;exitDy=0;exitPerimeter=0;entryX=1;entryY=0.5;entryDx=0;entryDy=0;strokeColor=light-dark(#000000,#000000);align=center;verticalAlign=middle;fontFamily=Helvetica;fontSize=12;fontColor=light-dark(#000000,#000000);labelBackgroundColor=default;endArrow=classic;" edge="1" parent="1" source="k0jRA1kzdCy6k_ZmYVvg-28" target="k0jRA1kzdCy6k_ZmYVvg-20">
          <mxGeometry relative="1" as="geometry" />
        </mxCell>
        <mxCell id="k0jRA1kzdCy6k_ZmYVvg-38" style="edgeStyle=orthogonalEdgeStyle;shape=connector;rounded=0;orthogonalLoop=1;jettySize=auto;html=1;entryX=1;entryY=0.5;entryDx=0;entryDy=0;strokeColor=light-dark(#000000,#000000);align=center;verticalAlign=middle;fontFamily=Helvetica;fontSize=12;fontColor=light-dark(#000000,#000000);labelBackgroundColor=default;endArrow=classic;" edge="1" parent="1" target="k0jRA1kzdCy6k_ZmYVvg-21">
          <mxGeometry relative="1" as="geometry">
            <mxPoint x="645" y="580" as="sourcePoint" />
            <Array as="points">
              <mxPoint x="645" y="650" />
            </Array>
          </mxGeometry>
        </mxCell>
        <mxCell id="k0jRA1kzdCy6k_ZmYVvg-39" style="edgeStyle=orthogonalEdgeStyle;shape=connector;rounded=0;orthogonalLoop=1;jettySize=auto;html=1;entryX=1;entryY=0.5;entryDx=0;entryDy=0;strokeColor=light-dark(#000000,#000000);align=center;verticalAlign=middle;fontFamily=Helvetica;fontSize=12;fontColor=light-dark(#000000,#000000);labelBackgroundColor=default;endArrow=classic;" edge="1" parent="1" target="k0jRA1kzdCy6k_ZmYVvg-27">
          <mxGeometry relative="1" as="geometry">
            <mxPoint x="650" y="580" as="sourcePoint" />
            <Array as="points">
              <mxPoint x="645" y="730" />
            </Array>
          </mxGeometry>
        </mxCell>
        <mxCell id="k0jRA1kzdCy6k_ZmYVvg-40" style="edgeStyle=orthogonalEdgeStyle;shape=connector;rounded=0;orthogonalLoop=1;jettySize=auto;html=1;entryX=1;entryY=0.5;entryDx=0;entryDy=0;strokeColor=light-dark(#000000,#000000);align=center;verticalAlign=middle;fontFamily=Helvetica;fontSize=12;fontColor=light-dark(#000000,#000000);labelBackgroundColor=default;endArrow=classic;" edge="1" parent="1" target="k0jRA1kzdCy6k_ZmYVvg-22">
          <mxGeometry relative="1" as="geometry">
            <mxPoint x="645" y="590" as="sourcePoint" />
            <Array as="points">
              <mxPoint x="645" y="810" />
            </Array>
          </mxGeometry>
        </mxCell>
        <mxCell id="k0jRA1kzdCy6k_ZmYVvg-41" style="edgeStyle=orthogonalEdgeStyle;shape=connector;rounded=0;orthogonalLoop=1;jettySize=auto;html=1;entryX=1;entryY=0.5;entryDx=0;entryDy=0;strokeColor=light-dark(#000000,#000000);align=center;verticalAlign=middle;fontFamily=Helvetica;fontSize=12;fontColor=light-dark(#000000,#000000);labelBackgroundColor=default;endArrow=classic;" edge="1" parent="1" target="k0jRA1kzdCy6k_ZmYVvg-23">
          <mxGeometry relative="1" as="geometry">
            <mxPoint x="645" y="590" as="sourcePoint" />
            <Array as="points">
              <mxPoint x="645" y="890" />
            </Array>
          </mxGeometry>
        </mxCell>
        <mxCell id="k0jRA1kzdCy6k_ZmYVvg-42" style="edgeStyle=orthogonalEdgeStyle;shape=connector;rounded=0;orthogonalLoop=1;jettySize=auto;html=1;entryX=1;entryY=0.5;entryDx=0;entryDy=0;strokeColor=light-dark(#000000,#000000);align=center;verticalAlign=middle;fontFamily=Helvetica;fontSize=12;fontColor=light-dark(#000000,#000000);labelBackgroundColor=default;endArrow=classic;" edge="1" parent="1" target="k0jRA1kzdCy6k_ZmYVvg-24">
          <mxGeometry relative="1" as="geometry">
            <mxPoint x="645" y="600" as="sourcePoint" />
            <Array as="points">
              <mxPoint x="645" y="970" />
            </Array>
          </mxGeometry>
        </mxCell>
        <mxCell id="k0jRA1kzdCy6k_ZmYVvg-28" value="Admin" style="shape=umlActor;verticalLabelPosition=bottom;verticalAlign=top;html=1;outlineConnect=0;rounded=0;align=center;fontFamily=Helvetica;fontSize=12;fontColor=light-dark(#000000,#000000);fillColor=none;gradientColor=none;strokeColor=light-dark(#000000,#000000);" vertex="1" parent="1">
          <mxGeometry x="630" y="490" width="30" height="60" as="geometry" />
        </mxCell>
        <mxCell id="k0jRA1kzdCy6k_ZmYVvg-43" style="edgeStyle=orthogonalEdgeStyle;shape=connector;rounded=0;orthogonalLoop=1;jettySize=auto;html=1;strokeColor=light-dark(#000000,#000000);align=center;verticalAlign=middle;fontFamily=Helvetica;fontSize=12;fontColor=light-dark(#000000,#000000);labelBackgroundColor=default;endArrow=classic;entryX=1;entryY=0.5;entryDx=0;entryDy=0;" edge="1" parent="1" target="k0jRA1kzdCy6k_ZmYVvg-25">
          <mxGeometry relative="1" as="geometry">
            <mxPoint x="645" y="590" as="sourcePoint" />
            <mxPoint x="350" y="1050" as="targetPoint" />
            <Array as="points">
              <mxPoint x="645" y="1050" />
            </Array>
          </mxGeometry>
        </mxCell>
      </root>
    </mxGraphModel>
  </diagram>
</mxfile>
